<?xml version="1.0" encoding="iso-8859-1"?>
<!-- Generator: Adobe Illustrator 19.0.0, SVG Export Plug-In . SVG Version: 6.00 Build 0)  -->
<svg version="1.1" id="Capa_1" xmlns="http://www.w3.org/2000/svg" xmlns:xlink="http://www.w3.org/1999/xlink" x="0px" y="0px"
	 viewBox="0 0 512 512" style="enable-background:new 0 0 512 512;" xml:space="preserve">
<path style="fill:#D5011D;" d="M256,0L60,256l196,256c141.385,0,256-114.615,256-256S397.385,0,256,0z"/>
<path style="fill:#FF0021;" d="M0,256c0,141.385,114.615,256,256,256V0C114.615,0,0,114.615,0,256z"/>
<polygon style="fill:#EFF6F9;" points="323.5,151 256.001,218.501 226.001,218.501 256,303.354 323.5,235.855 323.5,361 383.5,361 
	383.5,151 "/>
<polygon style="fill:#FFFFFF;" points="188.5,151 128.5,151 128.5,361 188.5,361 188.5,235.853 256,303.354 256,218.5 "/>
<g>
</g>
<g>
</g>
<g>
</g>
<g>
</g>
<g>
</g>
<g>
</g>
<g>
</g>
<g>
</g>
<g>
</g>
<g>
</g>
<g>
</g>
<g>
</g>
<g>
</g>
<g>
</g>
<g>
</g>
</svg>
